<?xml version="1.0" encoding="UTF-8"?>
<svg version="1.1" xmlns="http://www.w3.org/2000/svg" width="512" height="512">
<path d="M0 0 C0.74698179 -0.00265183 1.49396358 -0.00530365 2.26358119 -0.00803584 C4.78067094 -0.0157295 7.29771192 -0.01628804 9.81481266 -0.01688576 C11.63216259 -0.02090035 13.44951163 -0.02533857 15.26685959 -0.03016531 C20.27221919 -0.04213726 25.27756915 -0.04778072 30.28294027 -0.05234647 C35.6771768 -0.05830028 41.07140178 -0.06991075 46.46563053 -0.08063698 C59.4993609 -0.10516713 72.5330951 -0.11978959 85.56684145 -0.13269705 C89.24805315 -0.13640871 92.92926446 -0.14038197 96.61047578 -0.14444971 C119.46869421 -0.16968734 142.32691323 -0.19174121 165.18514252 -0.20417786 C170.48064965 -0.20710757 175.77615677 -0.21006923 181.07166386 -0.21308327 C182.38784354 -0.21382932 183.70402323 -0.21457537 185.06008715 -0.21534403 C206.37770006 -0.22799552 227.69521259 -0.26121535 249.01278996 -0.3028851 C270.89793009 -0.34531362 292.78302751 -0.36887401 314.66820866 -0.37409842 C326.95633484 -0.37751162 339.24433065 -0.38925614 351.53241634 -0.42220116 C361.99859391 -0.45021543 372.46461439 -0.4611949 382.93082654 -0.4500057 C388.26916785 -0.44482253 393.60718024 -0.44768392 398.94547367 -0.47247124 C403.83808051 -0.494999 408.73012283 -0.49419628 413.6227398 -0.47526737 C415.387316 -0.47247231 417.15193077 -0.47803823 418.91644507 -0.4930803 C434.69485853 -0.61930104 446.57050812 2.60746298 458.31311893 13.71904564 C464.94499728 20.7440508 469.75212245 30.37588198 469.77825832 40.09069538 C469.78333287 41.09386042 469.78840741 42.09702545 469.79363573 43.13058943 C469.79438236 44.78070071 469.79438236 44.78070071 469.79514408 46.46414757 C469.79952634 47.63445599 469.80390859 48.80476442 469.80842364 50.01053673 C469.81948066 53.26005881 469.82603375 56.50955374 469.83060479 59.7590903 C469.83656737 63.26374206 469.84817575 66.76837615 469.8588953 70.27301598 C469.88340698 78.7386643 469.89804604 87.20431846 469.91095537 95.66999134 C469.91466865 98.06236971 469.91864178 100.4547475 469.92270803 102.84712529 C469.9479494 117.71260865 469.96999633 132.57809296 469.98243618 147.44359303 C469.98536575 150.88624068 469.98832743 154.3288883 469.99134159 157.77153587 C469.99208764 158.62716089 469.99283369 159.4827859 469.99360235 160.36433894 C470.00624562 174.21313142 470.03945528 188.06179521 470.08114342 201.91052758 C470.12362147 216.13870397 470.14713811 230.3668146 470.15235674 244.59505421 C470.15576456 252.57957696 470.16744485 260.56389873 470.20045948 268.54835892 C470.22854219 275.35111857 470.23942356 282.15363604 470.22826402 288.95644914 C470.22309792 292.42351229 470.22582863 295.89006892 470.25072956 299.35705757 C470.36635209 318.51118756 469.764967 332.32478359 456.05921268 346.80888939 C448.39808318 354.04129389 438.61116681 358.26556195 428.16193485 358.25726891 C427.18900639 358.25855054 427.18900639 358.25855054 426.19642282 358.25985807 C424.02533239 358.2615038 421.85431941 358.25600638 419.68323612 358.25053978 C418.12601568 358.25025769 416.56879511 358.25041608 415.01157475 358.25098228 C410.78466205 358.25126939 406.55777769 358.24538658 402.33087158 358.23840833 C397.91327336 358.23216045 393.4956745 358.23156985 389.07807255 358.23038292 C380.71294801 358.22727384 372.34783654 358.21906615 363.98271775 358.20903343 C354.45922877 358.19785916 344.93573917 358.19235853 335.41224527 358.18733799 C315.82190259 358.17688319 296.2315778 358.15854296 276.64124393 358.13701439 C276.64124393 379.91701439 276.64124393 401.69701439 276.64124393 424.13701439 C284.00694706 424.09060814 291.37265018 424.04420189 298.96155643 423.99638939 C303.6282372 423.97595093 308.29486277 423.95669511 312.96155643 423.94170189 C320.36857408 423.91779177 327.77539391 423.88950769 335.18225956 423.83525658 C341.15393968 423.79179117 347.12540767 423.76787546 353.09723377 423.75750542 C355.37541767 423.75011538 357.65358997 423.73568442 359.93168354 423.71409416 C363.12304863 423.68505177 366.31353746 423.68105885 369.50501347 423.68291283 C370.44656788 423.66853172 371.38812229 423.65415062 372.35820866 423.63933372 C377.95972851 423.67453847 381.21690949 424.35737971 385.64124393 428.13701439 C389.69754792 433.35961296 389.41521937 438.79041581 388.64124393 445.13701439 C386.45499787 449.75242275 384.14407051 451.86412395 379.64124393 454.13701439 C376.89836174 454.51421255 376.89836174 454.51421255 373.85779762 454.51733112 C372.11368405 454.52999103 372.11368405 454.52999103 370.33433586 454.5429067 C369.06119796 454.53689666 367.78806005 454.53088661 366.4763422 454.52469444 C365.10686491 454.52886759 363.73739108 454.534345 362.36792368 454.54101425 C358.60541277 454.55549025 354.84312051 454.55121749 351.08059752 454.54384744 C347.02257033 454.53912338 342.96459096 454.55161885 338.90657902 454.56186485 C330.95693206 454.5790731 323.00736407 454.57988868 315.05770332 454.57465195 C308.59714825 454.57061283 302.13661654 454.57205073 295.67606258 454.57740021 C294.29754737 454.57852284 294.29754737 454.57852284 292.89118336 454.57966815 C291.02430141 454.58119961 289.15741947 454.58273795 287.29053753 454.58428312 C269.77785352 454.59801546 252.26521416 454.59256529 234.75253116 454.58109791 C218.72633893 454.57116444 202.70026214 454.58410687 186.67408771 454.6080321 C170.22316789 454.63240663 153.77230187 454.64203505 137.32136434 454.63537937 C128.0834902 454.63188353 118.84570486 454.63414328 109.60784435 454.6516304 C101.74394996 454.66633181 93.88020689 454.66701488 86.01631553 454.64955949 C82.00338963 454.6410301 77.9907343 454.63894695 73.9778223 454.65421104 C70.30444069 454.66801078 66.63156265 454.66335645 62.95821052 454.64397181 C60.99943125 454.63840816 59.04062665 454.65252261 57.08189541 454.66732591 C46.43290896 454.57764279 46.43290896 454.57764279 41.64124393 450.13701439 C37.58493995 444.91441582 37.8672685 439.48361297 38.64124393 433.13701439 C40.81159875 428.55515421 43.06700235 426.2369836 47.64124393 424.13701439 C50.98391052 423.71122899 54.29844876 423.75803191 57.66394901 423.79643822 C59.17197086 423.7957811 59.17197086 423.7957811 60.7104578 423.7951107 C64.02742906 423.79719767 67.34389242 423.82052496 70.66077518 423.84404564 C72.96291166 423.8496419 75.26505171 423.85391186 77.56719303 423.8569088 C83.62204725 423.86835509 89.67668508 423.8978207 95.7314539 423.93102074 C102.99851605 423.96712607 110.26565062 423.98088377 117.53277683 423.99838066 C128.56908296 424.02745787 139.60491443 424.08494713 150.64124393 424.13701439 C150.64124393 402.35701439 150.64124393 380.57701439 150.64124393 358.13701439 C145.92303349 358.16319847 141.20482304 358.18938255 136.34363651 358.21636009 C120.73344044 358.29930624 105.12323556 358.35473227 89.51287651 358.39607525 C80.05074955 358.42180373 70.58883209 358.45685123 61.12683964 358.51421165 C52.87509201 358.56421128 44.6234962 358.59634429 36.37160128 358.60745686 C32.00643971 358.61394774 27.64171225 358.62908987 23.27669048 358.66566467 C19.15865776 358.69988672 15.04123329 358.71001524 10.92307186 358.7025528 C9.42075755 358.70391575 7.91842051 358.71369134 6.4162302 358.73304176 C-8.68389193 358.91782789 -20.03190076 354.96266018 -31.03063107 344.55498314 C-37.66250942 337.52997798 -42.46963458 327.8981468 -42.49577045 318.1833334 C-42.500845 317.18016836 -42.50591954 316.17700333 -42.51114786 315.14343935 C-42.51164561 314.04336517 -42.51214337 312.94329098 -42.51265621 311.80988121 C-42.51703847 310.63957279 -42.52142072 309.46926436 -42.52593577 308.26349205 C-42.53699279 305.01396996 -42.54354588 301.76447504 -42.54811692 298.51493847 C-42.5540795 295.01028671 -42.56568788 291.50565263 -42.57640743 288.0010128 C-42.60091911 279.53536448 -42.61555817 271.06971032 -42.6284675 262.60403743 C-42.63218078 260.21165907 -42.63615391 257.81928128 -42.64022017 255.42690349 C-42.66546153 240.56142013 -42.68750846 225.69593581 -42.69994831 210.83043575 C-42.70287788 207.3877881 -42.70583956 203.94514048 -42.70885372 200.5024929 C-42.70959977 199.64686789 -42.71034582 198.79124288 -42.71111448 197.90968984 C-42.72375775 184.06089736 -42.75696741 170.21223357 -42.79865555 156.3635012 C-42.8411336 142.13532481 -42.86465024 127.90721418 -42.86986887 113.67897457 C-42.87327669 105.69445182 -42.88495698 97.71013005 -42.91797161 89.72566986 C-42.94605432 82.9229102 -42.95693569 76.12039274 -42.94577615 69.31757963 C-42.94061005 65.85051649 -42.94334076 62.38395986 -42.96824169 58.91697121 C-43.08386422 39.76284122 -42.48247913 25.94924519 -28.77672482 11.46513939 C-20.77416084 3.91040746 -10.84652891 -0.0186959 0 0 Z " fill="#E1DEF3" transform="translate(42.35875606536865,28.862985610961914)"/>
<path d="M0 0 C0.88182449 -0.00342407 1.76364899 -0.00684814 2.67219543 -0.01037598 C5.62412777 -0.01697512 8.575144 0.00505981 11.5269928 0.0269165 C13.68049115 0.02814229 15.83399112 0.02760711 17.98748875 0.02545547 C23.74907732 0.02455326 29.51033289 0.04771898 35.27184296 0.07589722 C40.68026772 0.09869454 46.08861192 0.09975064 51.49708557 0.1026001 C67.30926338 0.12358074 83.12137938 0.17942546 98.93348694 0.23101807 C134.26411194 0.31351807 169.59473694 0.39601807 205.99598694 0.48101807 C205.99598694 98.82101807 205.99598694 197.16101807 205.99598694 298.48101807 C153.03098694 298.63570557 153.03098694 298.63570557 98.99598694 298.79351807 C82.26846741 298.8617981 82.26846741 298.8617981 65.20301819 298.93145752 C51.59169006 298.95404053 51.59169006 298.95404053 45.22084045 298.95823669 C40.76856545 298.96289743 36.31658815 298.98164423 31.86439514 299.00889587 C26.18423047 299.04320306 20.5044984 299.05347186 14.82423973 299.04637945 C12.74030321 299.0478624 10.6563515 299.05777088 8.57250404 299.07709372 C5.75454236 299.10200864 2.93825563 299.09595505 0.12025452 299.08229065 C-1.0992691 299.10413563 -1.0992691 299.10413563 -2.34342957 299.12642193 C-8.27119018 299.049298 -12.5791627 297.51872645 -17.00401306 293.48101807 C-20.68078733 287.69290687 -20.43030362 281.95871015 -20.39169312 275.24627686 C-20.39707865 274.12225794 -20.40246419 272.99823903 -20.40801293 271.84015894 C-20.42230832 268.07775548 -20.41518465 264.31570306 -20.4080658 260.55328369 C-20.41376848 257.85427234 -20.42063178 255.1552861 -20.42886353 252.45628357 C-20.44604231 245.8888831 -20.44689356 239.32157834 -20.44165062 232.75416124 C-20.43760642 227.41589601 -20.43905544 222.07765903 -20.44439888 216.73939514 C-20.4451473 215.97914029 -20.44589572 215.21888544 -20.44666683 214.43559256 C-20.44819832 212.89106841 -20.44973667 211.34654427 -20.45128179 209.80202013 C-20.46500319 195.32471774 -20.4595714 180.84746942 -20.44809658 166.37016827 C-20.43816178 153.12860906 -20.45110974 139.88718954 -20.47503077 126.64565188 C-20.499418 113.04342265 -20.50903075 99.4412585 -20.50237805 85.83900785 C-20.49888534 78.20464738 -20.50112138 70.57039436 -20.51862907 62.93605042 C-20.53334625 56.43805227 -20.53399281 49.94023728 -20.51655816 43.44224274 C-20.50804212 40.12785747 -20.50807885 36.81386701 -20.52120972 33.49948692 C-20.53436553 29.90460083 -20.52291866 26.31060671 -20.50521851 22.71575928 C-20.51962602 21.1484902 -20.51962602 21.1484902 -20.53432459 19.54955912 C-20.47121795 13.32811184 -19.9099289 9.42852354 -16.00401306 4.48101807 C-10.67698834 0.45733735 -6.54838972 -0.09350458 0 0 Z " fill="#F8F8F8" transform="translate(50.00401306152344,58.51898193359375)"/>
<path d="M0 0 C0.74698179 -0.00265183 1.49396358 -0.00530365 2.26358119 -0.00803584 C4.78067094 -0.0157295 7.29771192 -0.01628804 9.81481266 -0.01688576 C11.63216259 -0.02090035 13.44951163 -0.02533857 15.26685959 -0.03016531 C20.27221919 -0.04213726 25.27756915 -0.04778072 30.28294027 -0.05234647 C35.6771768 -0.05830028 41.07140178 -0.06991075 46.46563053 -0.08063698 C59.4993609 -0.10516713 72.5330951 -0.11978959 85.56684145 -0.13269705 C89.24805315 -0.13640871 92.92926446 -0.14038197 96.61047578 -0.14444971 C119.46869421 -0.16968734 142.32691323 -0.19174121 165.18514252 -0.20417786 C170.48064965 -0.20710757 175.77615677 -0.21006923 181.07166386 -0.21308327 C182.38784354 -0.21382932 183.70402323 -0.21457537 185.06008715 -0.21534403 C206.37770006 -0.22799552 227.69521259 -0.26121535 249.01278996 -0.3028851 C270.89793009 -0.34531362 292.78302751 -0.36887401 314.66820866 -0.37409842 C326.95633484 -0.37751162 339.24433065 -0.38925614 351.53241634 -0.42220116 C361.99859391 -0.45021543 372.46461439 -0.4611949 382.93082654 -0.4500057 C388.26916785 -0.44482253 393.60718024 -0.44768392 398.94547367 -0.47247124 C403.83808051 -0.494999 408.73012283 -0.49419628 413.6227398 -0.47526737 C415.387316 -0.47247231 417.15193077 -0.47803823 418.91644507 -0.4930803 C434.69485853 -0.61930104 446.57050812 2.60746298 458.31311893 13.71904564 C464.94499728 20.7440508 469.75212245 30.37588198 469.77825832 40.09069538 C469.78333287 41.09386042 469.78840741 42.09702545 469.79363573 43.13058943 C469.79438236 44.78070071 469.79438236 44.78070071 469.79514408 46.46414757 C469.79952634 47.63445599 469.80390859 48.80476442 469.80842364 50.01053673 C469.81948066 53.26005881 469.82603375 56.50955374 469.83060479 59.7590903 C469.83656737 63.26374206 469.84817575 66.76837615 469.8588953 70.27301598 C469.88340698 78.7386643 469.89804604 87.20431846 469.91095537 95.66999134 C469.91466865 98.06236971 469.91864178 100.4547475 469.92270803 102.84712529 C469.9479494 117.71260865 469.96999633 132.57809296 469.98243618 147.44359303 C469.98536575 150.88624068 469.98832743 154.3288883 469.99134159 157.77153587 C469.99208764 158.62716089 469.99283369 159.4827859 469.99360235 160.36433894 C470.00624562 174.21313142 470.03945528 188.06179521 470.08114342 201.91052758 C470.12362147 216.13870397 470.14713811 230.3668146 470.15235674 244.59505421 C470.15576456 252.57957696 470.16744485 260.56389873 470.20045948 268.54835892 C470.22854219 275.35111857 470.23942356 282.15363604 470.22826402 288.95644914 C470.22309792 292.42351229 470.22582863 295.89006892 470.25072956 299.35705757 C470.36635209 318.51118756 469.764967 332.32478359 456.05921268 346.80888939 C448.39808318 354.04129389 438.61116681 358.26556195 428.16193485 358.25726891 C427.18900639 358.25855054 427.18900639 358.25855054 426.19642282 358.25985807 C424.02533239 358.2615038 421.85431941 358.25600638 419.68323612 358.25053978 C418.12601568 358.25025769 416.56879511 358.25041608 415.01157475 358.25098228 C410.78466205 358.25126939 406.55777769 358.24538658 402.33087158 358.23840833 C397.91327336 358.23216045 393.4956745 358.23156985 389.07807255 358.23038292 C380.71294801 358.22727384 372.34783654 358.21906615 363.98271775 358.20903343 C354.45922877 358.19785916 344.93573917 358.19235853 335.41224527 358.18733799 C315.82190259 358.17688319 296.2315778 358.15854296 276.64124393 358.13701439 C276.64124393 379.91701439 276.64124393 401.69701439 276.64124393 424.13701439 C284.00694706 424.09060814 291.37265018 424.04420189 298.96155643 423.99638939 C303.6282372 423.97595093 308.29486277 423.95669511 312.96155643 423.94170189 C320.36857408 423.91779177 327.77539391 423.88950769 335.18225956 423.83525658 C341.15393968 423.79179117 347.12540767 423.76787546 353.09723377 423.75750542 C355.37541767 423.75011538 357.65358997 423.73568442 359.93168354 423.71409416 C363.12304863 423.68505177 366.31353746 423.68105885 369.50501347 423.68291283 C370.44656788 423.66853172 371.38812229 423.65415062 372.35820866 423.63933372 C377.95972851 423.67453847 381.21690949 424.35737971 385.64124393 428.13701439 C389.69754792 433.35961296 389.41521937 438.79041581 388.64124393 445.13701439 C386.45499787 449.75242275 384.14407051 451.86412395 379.64124393 454.13701439 C376.89836174 454.51421255 376.89836174 454.51421255 373.85779762 454.51733112 C372.11368405 454.52999103 372.11368405 454.52999103 370.33433586 454.5429067 C369.06119796 454.53689666 367.78806005 454.53088661 366.4763422 454.52469444 C365.10686491 454.52886759 363.73739108 454.534345 362.36792368 454.54101425 C358.60541277 454.55549025 354.84312051 454.55121749 351.08059752 454.54384744 C347.02257033 454.53912338 342.96459096 454.55161885 338.90657902 454.56186485 C330.95693206 454.5790731 323.00736407 454.57988868 315.05770332 454.57465195 C308.59714825 454.57061283 302.13661654 454.57205073 295.67606258 454.57740021 C294.29754737 454.57852284 294.29754737 454.57852284 292.89118336 454.57966815 C291.02430141 454.58119961 289.15741947 454.58273795 287.29053753 454.58428312 C269.77785352 454.59801546 252.26521416 454.59256529 234.75253116 454.58109791 C218.72633893 454.57116444 202.70026214 454.58410687 186.67408771 454.6080321 C170.22316789 454.63240663 153.77230187 454.64203505 137.32136434 454.63537937 C128.0834902 454.63188353 118.84570486 454.63414328 109.60784435 454.6516304 C101.74394996 454.66633181 93.88020689 454.66701488 86.01631553 454.64955949 C82.00338963 454.6410301 77.9907343 454.63894695 73.9778223 454.65421104 C70.30444069 454.66801078 66.63156265 454.66335645 62.95821052 454.64397181 C60.99943125 454.63840816 59.04062665 454.65252261 57.08189541 454.66732591 C46.43290896 454.57764279 46.43290896 454.57764279 41.64124393 450.13701439 C37.58493995 444.91441582 37.8672685 439.48361297 38.64124393 433.13701439 C40.81159875 428.55515421 43.06700235 426.2369836 47.64124393 424.13701439 C50.98391052 423.71122899 54.29844876 423.75803191 57.66394901 423.79643822 C59.17197086 423.7957811 59.17197086 423.7957811 60.7104578 423.7951107 C64.02742906 423.79719767 67.34389242 423.82052496 70.66077518 423.84404564 C72.96291166 423.8496419 75.26505171 423.85391186 77.56719303 423.8569088 C83.62204725 423.86835509 89.67668508 423.8978207 95.7314539 423.93102074 C102.99851605 423.96712607 110.26565062 423.98088377 117.53277683 423.99838066 C128.56908296 424.02745787 139.60491443 424.08494713 150.64124393 424.13701439 C150.64124393 402.35701439 150.64124393 380.57701439 150.64124393 358.13701439 C145.92303349 358.16319847 141.20482304 358.18938255 136.34363651 358.21636009 C120.73344044 358.29930624 105.12323556 358.35473227 89.51287651 358.39607525 C80.05074955 358.42180373 70.58883209 358.45685123 61.12683964 358.51421165 C52.87509201 358.56421128 44.6234962 358.59634429 36.37160128 358.60745686 C32.00643971 358.61394774 27.64171225 358.62908987 23.27669048 358.66566467 C19.15865776 358.69988672 15.04123329 358.71001524 10.92307186 358.7025528 C9.42075755 358.70391575 7.91842051 358.71369134 6.4162302 358.73304176 C-8.68389193 358.91782789 -20.03190076 354.96266018 -31.03063107 344.55498314 C-37.66250942 337.52997798 -42.46963458 327.8981468 -42.49577045 318.1833334 C-42.500845 317.18016836 -42.50591954 316.17700333 -42.51114786 315.14343935 C-42.51164561 314.04336517 -42.51214337 312.94329098 -42.51265621 311.80988121 C-42.51703847 310.63957279 -42.52142072 309.46926436 -42.52593577 308.26349205 C-42.53699279 305.01396996 -42.54354588 301.76447504 -42.54811692 298.51493847 C-42.5540795 295.01028671 -42.56568788 291.50565263 -42.57640743 288.0010128 C-42.60091911 279.53536448 -42.61555817 271.06971032 -42.6284675 262.60403743 C-42.63218078 260.21165907 -42.63615391 257.81928128 -42.64022017 255.42690349 C-42.66546153 240.56142013 -42.68750846 225.69593581 -42.69994831 210.83043575 C-42.70287788 207.3877881 -42.70583956 203.94514048 -42.70885372 200.5024929 C-42.70959977 199.64686789 -42.71034582 198.79124288 -42.71111448 197.90968984 C-42.72375775 184.06089736 -42.75696741 170.21223357 -42.79865555 156.3635012 C-42.8411336 142.13532481 -42.86465024 127.90721418 -42.86986887 113.67897457 C-42.87327669 105.69445182 -42.88495698 97.71013005 -42.91797161 89.72566986 C-42.94605432 82.9229102 -42.95693569 76.12039274 -42.94577615 69.31757963 C-42.94061005 65.85051649 -42.94334076 62.38395986 -42.96824169 58.91697121 C-43.08386422 39.76284122 -42.48247913 25.94924519 -28.77672482 11.46513939 C-20.77416084 3.91040746 -10.84652891 -0.0186959 0 0 Z M-10.76451015 37.18526363 C-13.16886405 42.02936924 -12.91198345 47.06482234 -12.86669064 52.36502647 C-12.8729306 53.48833982 -12.87917056 54.61165317 -12.88559961 55.76900631 C-12.90154116 59.52917824 -12.88892002 63.288703 -12.87633419 67.04887962 C-12.88175481 69.74627636 -12.88873255 72.44362867 -12.89757442 75.14101219 C-12.91534579 81.70476996 -12.91152573 88.2683446 -12.89992386 94.8321095 C-12.89088357 100.16798786 -12.88966811 105.50381497 -12.89401913 110.83969879 C-12.89463206 111.59966492 -12.89524499 112.35963105 -12.8958765 113.14262645 C-12.89715543 114.68658488 -12.89845228 116.23054329 -12.89976686 117.77450169 C-12.91116881 132.24708636 -12.89806543 146.71956963 -12.8765654 161.19213767 C-12.85869835 173.6032574 -12.86179599 186.01422745 -12.88024044 198.42534447 C-12.90166021 212.84523341 -12.91006641 227.26503348 -12.89779139 241.68493611 C-12.89651722 243.22346213 -12.89525974 244.76198817 -12.89401913 246.30051422 C-12.89340202 247.05745393 -12.89278492 247.81439365 -12.89214912 248.59427093 C-12.88869927 253.92161969 -12.89451677 259.24891197 -12.90393734 264.57625198 C-12.91517118 271.07166922 -12.91208848 277.56689317 -12.89081436 284.06228834 C-12.88032176 287.37476544 -12.87831434 290.68685509 -12.88941097 293.99934006 C-12.90034219 297.59388729 -12.8866302 301.1875291 -12.86669064 304.78201866 C-12.87561352 305.82395187 -12.88453641 306.86588508 -12.89372969 307.93939203 C-12.83001924 313.86118539 -12.43787085 319.52657292 -8.35875607 324.13701439 C-3.31694577 327.6115205 -0.03355917 328.63707098 6.20128822 328.63758564 C6.93356824 328.64309981 7.66584825 328.64861397 8.42031857 328.65429524 C10.86959614 328.66787085 13.3178554 328.65300441 15.76711369 328.63821983 C17.54254761 328.6421134 19.31797841 328.64775429 21.09340185 328.65499073 C25.96879043 328.66975521 30.84385636 328.65955821 35.71923459 328.64525402 C40.9783237 328.63415389 46.2373672 328.64608362 51.49645329 328.65509605 C61.79738271 328.66903674 72.09818964 328.66146632 82.39911325 328.64642047 C94.39099875 328.6295706 106.38285365 328.63276932 118.37474733 328.63651455 C139.76837319 328.64239459 161.16194021 328.62821556 182.55555058 328.60356712 C203.32282561 328.57964294 224.09002204 328.57256386 244.85730839 328.58305931 C267.46396273 328.59446385 290.0705807 328.59640454 312.67723459 328.58196121 C315.08691879 328.58043535 317.49660299 328.57891499 319.90628719 328.57740021 C321.09194542 328.57664239 322.27760365 328.57588458 323.49919092 328.5751038 C331.8616573 328.57035763 340.22410746 328.57221475 348.5865736 328.57646561 C358.77435897 328.58138789 368.96206996 328.57542736 379.14983828 328.55557131 C384.34952517 328.54568736 389.54909872 328.54060614 394.74879169 328.54846382 C399.50635005 328.55550637 404.2636794 328.54874941 409.0212075 328.53086019 C410.74450783 328.52680646 412.46782893 328.52783101 414.19112159 328.53437906 C416.53003652 328.54250734 418.8681757 328.53224427 421.20704079 328.51733112 C422.50720589 328.51630199 423.807371 328.51527286 425.14693505 328.51421255 C430.23884577 327.96455898 433.48576575 326.38618 436.95374393 322.63701439 C439.30691914 319.1508289 439.76669357 316.56374273 439.77546501 312.45861912 C439.78215178 311.00785883 439.78215178 311.00785883 439.78897363 309.52779025 C439.78878927 308.46282881 439.7886049 307.39786738 439.78841496 306.30063438 C439.79392999 304.60642356 439.79392999 304.60642356 439.79955643 302.87798625 C439.81061607 299.07329253 439.81444096 295.2686261 439.81824589 291.46391869 C439.82397556 288.74417956 439.83114236 286.02444455 439.83815861 283.30470848 C439.85792076 275.12937198 439.86798827 266.95403424 439.8768864 258.77867982 C439.88126914 254.92965169 439.88663593 251.08062494 439.89187527 247.2315979 C439.90888623 234.43858405 439.92338123 221.64557107 439.93062401 208.85254765 C439.93253392 205.53273772 439.93445426 202.2129278 439.93640995 198.8931179 C439.93689369 198.06798798 439.93737743 197.24285806 439.93787583 196.39272419 C439.94617927 183.02091554 439.97152206 169.64919624 440.00399063 156.27742662 C440.03704617 142.55217025 440.05507135 128.82695933 440.05826825 115.10166293 C440.06043459 107.3940421 440.06920151 99.68655164 440.09472942 91.97896957 C440.11641579 85.41608659 440.12449704 78.85336565 440.11476264 72.29045089 C440.11021195 68.94171903 440.11432109 65.59359328 440.13152409 62.2448616 C440.14913365 58.61440487 440.14218981 54.98480162 440.12899113 51.35434532 C440.13996037 50.29607605 440.15092962 49.23780678 440.16223127 48.14746875 C440.10944493 42.14966558 439.62330578 38.71451198 435.64124393 34.13701439 C431.16469775 30.20307987 427.41063621 30.01081244 421.57618427 30.00279331 C420.84881923 30.00044108 420.12145419 29.99808885 419.37204778 29.99566534 C416.91572417 29.98896708 414.45945336 29.98943381 412.00312138 29.98984337 C410.23185608 29.98654526 408.46059154 29.98281981 406.68932796 29.97870189 C401.80694243 29.96866781 396.9245692 29.96496284 392.04217482 29.96231258 C386.7823255 29.95841374 381.52248595 29.94883517 376.26264286 29.94009972 C363.55333251 29.92032424 350.84402135 29.91026809 338.13469946 29.90137193 C332.15343875 29.89699113 326.17217893 29.89162381 320.19091892 29.88638306 C300.31475477 29.86937031 280.43859117 29.85487507 260.56242085 29.84763432 C255.40282281 29.84572434 250.24322477 29.84380402 245.08362675 29.84184837 C243.80119507 29.84136463 242.5187634 29.84088089 241.19747016 29.84038249 C220.41247976 29.8320782 199.62754683 29.80673474 178.84258154 29.7742677 C157.51572757 29.74122505 136.18890283 29.72318812 114.86202312 29.71999007 C102.88261429 29.71782248 90.9032893 29.70903721 78.92390537 29.6835289 C68.7239769 29.66186014 58.52415263 29.65375265 48.32420376 29.66349568 C43.11829925 29.66805137 37.91260989 29.66608055 32.70673466 29.64673424 C27.94214262 29.62918042 23.17792395 29.63003678 18.41332838 29.64563153 C16.68853594 29.64801946 14.96371818 29.643623 13.23896459 29.63180288 C10.89541083 29.61673522 8.55318881 29.62631962 6.20966816 29.64202976 C4.90771448 29.64105295 3.60576081 29.64007614 2.26435399 29.63906974 C-3.44933675 30.4243348 -7.1366298 32.58849974 -10.76451015 37.18526363 Z " fill="#453D81" transform="translate(42.35875606536865,28.862985610961914)"/>
<path d="M0 0 C1.69962891 0.51046875 1.69962891 0.51046875 3.43359375 1.03125 C24.93628315 8.00254908 42.746863 23.07376218 53.33447266 42.95483398 C63.91883796 63.75850085 66.66789749 87.106915 59.62109375 109.55078125 C55.97837989 120.02615614 50.70838121 130.16282582 44 139 C43.52691406 139.63679687 43.05382812 140.27359375 42.56640625 140.9296875 C28.8311824 157.98739692 8.15286915 167.2318125 -13 171 C-38.5283927 173.07100331 -59.81557745 166.86889787 -80 151 C-81.546875 149.8553125 -81.546875 149.8553125 -83.125 148.6875 C-90.43885622 141.8506344 -96.29698986 133.81297209 -101 125 C-101.42925781 124.20722656 -101.85851562 123.41445312 -102.30078125 122.59765625 C-112.3801184 102.34536582 -114.43817173 79.03632289 -107.61328125 57.4453125 C-103.61231908 45.95163936 -98.05106238 36.15047216 -90 27 C-89.36964844 26.17757812 -88.73929687 25.35515625 -88.08984375 24.5078125 C-84.32851362 19.99421635 -79.62799094 16.58398748 -75 13 C-74.30003906 12.44957031 -73.60007812 11.89914063 -72.87890625 11.33203125 C-52.70298013 -3.33779417 -23.5908913 -7.70822272 0 0 Z " fill="#FEB454" transform="translate(384,96)"/>
<path d="M0 0 C0.90588277 -0.00085442 1.81176554 -0.00170885 2.74509931 -0.00258917 C5.78681226 -0.00423899 8.82847033 0.00126931 11.87017822 0.00672913 C14.04808043 0.00701113 16.22598273 0.006853 18.40388489 0.00628662 C24.32288904 0.00599917 30.24187301 0.01188756 36.16087246 0.01886058 C42.34418575 0.02510271 48.52749948 0.0256986 54.71081543 0.02688599 C66.42274708 0.02999676 78.13466941 0.03820674 89.84659696 0.04823548 C103.1789621 0.05948459 116.51132729 0.06490905 129.84369612 0.06993091 C157.27212518 0.08038955 184.70054532 0.09818503 212.12896729 0.12025452 C212.12896729 10.02025452 212.12896729 19.92025452 212.12896729 30.12025452 C208.11197914 30.12572296 208.11197914 30.12572296 204.01383972 30.13130188 C178.80718665 30.16750979 153.60065289 30.2256841 128.39409542 30.30415726 C115.43437936 30.34397392 102.47472425 30.37635311 89.51495361 30.39125061 C78.21978997 30.40425345 66.92476031 30.43118328 55.62967211 30.47486758 C49.64847552 30.49751298 43.66744436 30.51316334 37.6862011 30.51213837 C32.05632425 30.51139359 26.42681354 30.52927154 20.7970314 30.56142235 C18.73107764 30.56994004 16.66508291 30.57165864 14.59911919 30.56605721 C11.77664466 30.55942407 8.95533736 30.57732175 6.13298035 30.60127258 C5.31681635 30.59351217 4.50065236 30.58575175 3.65975612 30.57775617 C-1.95818038 30.66205893 -5.33567622 31.72018605 -9.87103271 35.12025452 C-13.77151363 40.32855357 -13.29182309 45.99727768 -13.25198364 52.23474121 C-13.25666361 53.3579057 -13.26134359 54.48107019 -13.26616538 55.63826996 C-13.27813632 59.40378773 -13.26864956 63.16894299 -13.25921631 66.9344635 C-13.26328109 69.63332686 -13.26851389 72.3321652 -13.27514648 75.03102112 C-13.28848287 81.60190739 -13.2856064 88.17269082 -13.27690856 94.74358111 C-13.27013147 100.08472938 -13.26921541 105.42584886 -13.27248001 110.7670002 C-13.27293971 111.52739054 -13.27339941 112.28778088 -13.27387304 113.07121335 C-13.27483222 114.61597904 -13.27580486 116.16074472 -13.27679081 117.70551039 C-13.28534458 132.18948853 -13.2755111 146.6734097 -13.25938971 161.1573785 C-13.24598924 173.58131168 -13.24831241 186.00516075 -13.262146 198.42909241 C-13.27820671 212.85994049 -13.28451776 227.29073862 -13.27530921 241.72159439 C-13.27435357 243.26096061 -13.27341046 244.80032684 -13.27248001 246.33969307 C-13.27201718 247.09706848 -13.27155436 247.85444389 -13.27107751 248.63477008 C-13.26848889 253.9680779 -13.2728559 259.301354 -13.27991867 264.63465691 C-13.28833946 271.13631717 -13.28604153 277.6378688 -13.27007644 284.13951664 C-13.262201 287.4558581 -13.26070896 290.77198147 -13.2690239 294.08832741 C-13.27721147 297.68532735 -13.2669506 301.28181683 -13.25198364 304.87878418 C-13.25867581 305.92431235 -13.26536797 306.96984053 -13.27226293 308.04705137 C-13.22568297 313.81158837 -12.9755453 318.17655204 -9.87103271 323.12025452 C-4.60320301 327.17480894 -0.37671003 327.70113322 6.13298035 327.63923645 C7.01692508 327.6467377 7.90086981 327.65423895 8.81160074 327.66196752 C11.76129943 327.68220047 14.71022621 327.67415058 17.65997314 327.66615295 C19.77921304 327.67489034 21.89844633 327.68537669 24.01766968 327.69747925 C29.7629922 327.72533939 35.50809945 327.72874392 41.25347972 327.72775936 C47.26065438 327.73088842 53.26773208 327.75650653 59.27485657 327.77973938 C70.64668926 327.82030332 82.01846461 327.84064107 93.39035851 327.85371327 C106.33833082 327.86958193 119.28620551 327.90799705 132.2341212 327.94830656 C158.86570665 328.03071098 185.49728248 328.08400002 212.12896729 328.12025452 C212.12896729 338.02025452 212.12896729 347.92025452 212.12896729 358.12025452 C183.53870847 358.23611517 154.94850641 358.32528687 126.35805988 358.37931538 C113.08231413 358.40507116 99.80671715 358.44017174 86.53106689 358.49745178 C74.95684383 358.54736683 63.38272853 358.57956461 51.80840081 358.59069699 C45.68271711 358.59720194 39.55734166 358.61243619 33.43175697 358.6489048 C27.6590859 358.68299197 21.88684832 358.69328168 16.11408615 358.68579292 C14.00223493 358.68716178 11.89036831 358.69701779 9.77860451 358.71628189 C-7.3506254 358.86479686 -19.64976605 356.73850919 -32.54290771 344.53822327 C-39.17478607 337.51321811 -43.98191123 327.88138692 -44.0080471 318.16657352 C-44.01312165 317.16340849 -44.01819619 316.16024346 -44.02342451 315.12667948 C-44.02392226 314.02660529 -44.02442002 312.92653111 -44.02493286 311.79312134 C-44.02931512 310.62281291 -44.03369737 309.45250449 -44.03821242 308.24673218 C-44.04926944 304.99721009 -44.05582253 301.74771517 -44.06039357 298.4981786 C-44.06635615 294.99352684 -44.07796453 291.48889275 -44.08868408 287.98425293 C-44.11319576 279.51860461 -44.12783482 271.05295044 -44.14074415 262.58727756 C-44.14445743 260.19489919 -44.14843056 257.80252141 -44.15249681 255.41014361 C-44.17773818 240.54466025 -44.19978511 225.67917594 -44.21222496 210.81367588 C-44.21515453 207.37102823 -44.21811621 203.92838061 -44.22113037 200.48573303 C-44.22187642 199.63010802 -44.22262247 198.77448301 -44.22339113 197.89292996 C-44.2360344 184.04413749 -44.26924406 170.1954737 -44.3109322 156.34674133 C-44.35341025 142.11856494 -44.37692689 127.89045431 -44.38214552 113.6622147 C-44.38555334 105.67769194 -44.39723363 97.69337018 -44.43024826 89.70890999 C-44.45833097 82.90615033 -44.46921234 76.10363287 -44.4580528 69.30081976 C-44.4528867 65.83375662 -44.45561741 62.36719998 -44.48051834 58.90021133 C-44.59614087 39.74608135 -43.99475578 25.93248532 -30.28900146 11.44837952 C-21.70130779 3.34126237 -11.526138 -0.03958017 0 0 Z " fill="#6B66CF" transform="translate(43.87103271484375,28.879745483398438)"/>
<path d="M0 0 C1.74411357 -0.01265991 1.74411357 -0.01265991 3.52346176 -0.02557558 C4.79659967 -0.01956553 6.06973758 -0.01355549 7.38145542 -0.00736332 C8.75093271 -0.01153647 10.12040654 -0.01701388 11.48987395 -0.02368313 C15.25238485 -0.03815912 19.01467711 -0.03388637 22.7772001 -0.02651632 C26.8352273 -0.02179226 30.89320666 -0.03428773 34.95121861 -0.04453373 C42.90086556 -0.06174198 50.85043355 -0.06255756 58.8000943 -0.05732083 C65.26064937 -0.05328171 71.72118108 -0.05471961 78.18173504 -0.06006908 C79.10074518 -0.06081751 80.01975533 -0.06156593 80.96661426 -0.06233703 C82.83349621 -0.06386848 84.70037816 -0.06540683 86.56726009 -0.066952 C104.07994411 -0.08068433 121.59258346 -0.07523417 139.10526646 -0.06376678 C155.13145869 -0.05383331 171.15753549 -0.06677574 187.18370991 -0.09070098 C203.63462973 -0.11507551 220.08549576 -0.12470392 236.53643328 -0.11804825 C245.77430742 -0.11455241 255.01209276 -0.11681216 264.24995327 -0.13429928 C272.11384767 -0.14900068 279.97759073 -0.14968375 287.8414821 -0.13222837 C291.854408 -0.12369897 295.86706333 -0.12161583 299.87997532 -0.13687992 C303.55335693 -0.15067966 307.22623498 -0.14602533 310.8995871 -0.12664068 C312.85836637 -0.12107703 314.81717098 -0.13519149 316.77590221 -0.14999479 C327.42488866 -0.06031166 327.42488866 -0.06031166 332.21655369 4.38031673 C336.27285767 9.60291531 335.99052912 15.03371816 335.21655369 21.38031673 C333.03030762 25.9957251 330.71938027 28.10742629 326.21655369 30.38031673 C323.4736715 30.75751489 323.4736715 30.75751489 320.43310738 30.76063347 C318.68899381 30.77329338 318.68899381 30.77329338 316.90964562 30.78620905 C315.63650771 30.780199 314.3633698 30.77418896 313.05165195 30.76799679 C311.68217467 30.77216993 310.31270084 30.77764735 308.94323343 30.7843166 C305.18072252 30.79879259 301.41843026 30.79451984 297.65590727 30.78714979 C293.59788008 30.78242573 289.53990071 30.79492119 285.48188877 30.8051672 C277.53224181 30.82237544 269.58267383 30.82319103 261.63301308 30.81795429 C255.172458 30.81391518 248.71192629 30.81535308 242.25137234 30.82070255 C241.33236219 30.82145097 240.41335205 30.8221994 239.46649311 30.8229705 C237.59961116 30.82450195 235.73272922 30.8260403 233.86584728 30.82758547 C216.35316327 30.8413178 198.84052391 30.83586764 181.32784092 30.82440025 C165.30164869 30.81446678 149.27557189 30.82740921 133.24939746 30.85133445 C116.79847764 30.87570898 100.34761162 30.88533739 83.8966741 30.87868172 C74.65879996 30.87518587 65.42101462 30.87744563 56.18315411 30.89493275 C48.31925971 30.90963415 40.45551664 30.91031722 32.59162528 30.89286184 C28.57869938 30.88433244 24.56604405 30.8822493 20.55313206 30.89751339 C16.87975045 30.91131313 13.2068724 30.9066588 9.53352027 30.88727415 C7.574741 30.8817105 5.6159364 30.89582495 3.65720516 30.91062826 C-6.99178128 30.82094513 -6.99178128 30.82094513 -11.78344631 26.38031673 C-15.83975029 21.15771816 -15.55742175 15.72691531 -14.78344631 9.38031673 C-11.64403141 2.75266306 -7.26379256 0.00745016 0 0 Z " fill="#453D81" transform="translate(95.78344631195068,452.61968326568604)"/>
<path d="M0 0 C41.58 0 83.16 0 126 0 C126 21.78 126 43.56 126 66 C84.42 66 42.84 66 0 66 C0 44.22 0 22.44 0 0 Z " fill="#2E2654" transform="translate(193,387)"/>
<path d="M0 0 C24.69752752 0 46.50489744 9.60707519 64 27 C79.53073849 43.5517905 87 64.54145024 87 87 C58.29 87 29.58 87 0 87 C0 58.29 0 29.58 0 0 Z " fill="#01CA75" transform="translate(360,93)"/>
<path d="M0 0 C0.68214182 -0.00256327 1.36428363 -0.00512655 2.06709641 -0.0077675 C4.34585164 -0.01269694 6.6239398 0.00377288 8.90263367 0.02018738 C10.5388182 0.02103384 12.17500387 0.02055814 13.81118774 0.01885986 C18.24886661 0.01799921 22.68630216 0.03563629 27.12392449 0.05658174 C31.76305422 0.07533685 36.40218953 0.07709806 41.04135132 0.08065796 C49.82439848 0.08998184 58.60733361 0.1146003 67.39033145 0.14470643 C77.39024134 0.17823973 87.39015658 0.19473376 97.3901087 0.20979273 C117.95904518 0.24114953 138.52787432 0.29452112 159.09672546 0.36076355 C159.09672546 10.26076355 159.09672546 20.16076355 159.09672546 30.36076355 C137.55667445 30.45335655 116.01667137 30.52474051 94.47646141 30.56801224 C84.47497661 30.58863803 74.47361773 30.616759 64.47221375 30.66252136 C55.75505064 30.70238855 47.03797873 30.72819624 38.32072699 30.73711753 C33.70491282 30.74233247 29.08935955 30.75458986 24.473629 30.78368378 C20.12832595 30.810851 15.78339108 30.81920592 11.43801117 30.81319427 C9.84407932 30.81429393 8.25013506 30.82224019 6.6562767 30.83758545 C4.47715244 30.85753487 2.29941186 30.85268608 0.12025452 30.84178162 C-1.70766097 30.84731237 -1.70766097 30.84731237 -3.57250404 30.85295486 C-8.52745116 30.12075733 -11.70298174 27.90617224 -14.75093079 23.9818573 C-16.83896135 19.23247252 -16.52248411 14.43828204 -15.90327454 9.36076355 C-12.46151301 2.09482254 -7.80938824 -0.01770836 0 0 Z " fill="#6A65D0" transform="translate(96.90327453613281,452.6392364501953)"/>
<path d="M0 0 C20.79 0 41.58 0 63 0 C63 21.78 63 43.56 63 66 C42.21 66 21.42 66 0 66 C0 44.22 0 22.44 0 0 Z " fill="#453D81" transform="translate(193,387)"/>
<path d="M0 0 C0.84648605 -0.00861557 1.69297211 -0.01723114 2.56510925 -0.02610779 C5.34588752 -0.04869448 8.12565197 -0.0420423 10.90649414 -0.03295898 C12.85030922 -0.03819795 14.79412175 -0.04447543 16.7379303 -0.05174255 C20.80555206 -0.06213341 24.8728237 -0.05760437 28.94042969 -0.04296875 C34.14018238 -0.02578637 39.33882946 -0.04927648 44.53845882 -0.08445835 C48.5509415 -0.10647202 52.56316126 -0.1049812 56.5756855 -0.09669304 C58.49214452 -0.09587563 60.40862325 -0.10269862 62.32502556 -0.11746407 C65.01033349 -0.13498296 67.69367555 -0.12030748 70.37890625 -0.09765625 C71.16201172 -0.10934845 71.94511719 -0.12104065 72.75195312 -0.13308716 C78.62953179 -0.03276075 82.71368459 1.79102427 87.25415039 5.53344727 C89.94347324 9.31530752 90.86574009 12.76580037 90.66821289 17.44360352 C89.8909316 21.36667418 88.00065597 24.65281002 85.25415039 27.53344727 C80.24827716 30.62397032 76.31915255 30.97453825 70.62182617 30.95336914 C69.77548615 30.96183868 68.92914612 30.97030823 68.05715942 30.97903442 C65.27110592 31.00235251 62.48560643 31.00342777 59.69946289 31.00219727 C57.75421937 31.0093023 55.80897794 31.0170018 53.86373901 31.02526855 C49.79020358 31.03870169 45.71686191 31.04028751 41.64331055 31.03442383 C36.43572051 31.02853082 31.22906375 31.05910838 26.02165413 31.09954071 C22.0049035 31.12545296 17.98837649 31.12829188 13.9715538 31.12464905 C12.05229219 31.12633719 10.1330199 31.13595015 8.21384048 31.15379333 C5.52368871 31.17605186 2.83541174 31.16624681 0.14526367 31.14868164 C-0.63941284 31.16194489 -1.42408936 31.17520813 -2.23254395 31.18887329 C-8.11826316 31.10005483 -12.20041504 29.28279904 -16.74584961 25.53344727 C-19.47445703 21.69634307 -20.30697774 18.29001018 -20.08959961 13.55297852 C-19.488703 10.02271094 -18.21641898 7.13404661 -15.74584961 4.53344727 C-10.31151679 0.84761838 -6.49643325 -0.05399737 0 0 Z " fill="#E2DFF4" transform="translate(148.745849609375,228.466552734375)"/>
<path d="M0 0 C0.84648605 -0.00861557 1.69297211 -0.01723114 2.56510925 -0.02610779 C5.34588752 -0.04869448 8.12565197 -0.0420423 10.90649414 -0.03295898 C12.85030922 -0.03819795 14.79412175 -0.04447543 16.7379303 -0.05174255 C20.80555206 -0.06213341 24.8728237 -0.05760437 28.94042969 -0.04296875 C34.14018238 -0.02578637 39.33882946 -0.04927648 44.53845882 -0.08445835 C48.5509415 -0.10647202 52.56316126 -0.1049812 56.5756855 -0.09669304 C58.49214452 -0.09587563 60.40862325 -0.10269862 62.32502556 -0.11746407 C65.01033349 -0.13498296 67.69367555 -0.12030748 70.37890625 -0.09765625 C71.16201172 -0.10934845 71.94511719 -0.12104065 72.75195312 -0.13308716 C78.62953179 -0.03276075 82.71368459 1.79102427 87.25415039 5.53344727 C89.94347324 9.31530752 90.86574009 12.76580037 90.66821289 17.44360352 C89.8909316 21.36667418 88.00065597 24.65281002 85.25415039 27.53344727 C80.24827716 30.62397032 76.31915255 30.97453825 70.62182617 30.95336914 C69.77548615 30.96183868 68.92914612 30.97030823 68.05715942 30.97903442 C65.27110592 31.00235251 62.48560643 31.00342777 59.69946289 31.00219727 C57.75421937 31.0093023 55.80897794 31.0170018 53.86373901 31.02526855 C49.79020358 31.03870169 45.71686191 31.04028751 41.64331055 31.03442383 C36.43572051 31.02853082 31.22906375 31.05910838 26.02165413 31.09954071 C22.0049035 31.12545296 17.98837649 31.12829188 13.9715538 31.12464905 C12.05229219 31.12633719 10.1330199 31.13595015 8.21384048 31.15379333 C5.52368871 31.17605186 2.83541174 31.16624681 0.14526367 31.14868164 C-0.63941284 31.16194489 -1.42408936 31.17520813 -2.23254395 31.18887329 C-8.11826316 31.10005483 -12.20041504 29.28279904 -16.74584961 25.53344727 C-19.47445703 21.69634307 -20.30697774 18.29001018 -20.08959961 13.55297852 C-19.488703 10.02271094 -18.21641898 7.13404661 -15.74584961 4.53344727 C-10.31151679 0.84761838 -6.49643325 -0.05399737 0 0 Z " fill="#E2DFF4" transform="translate(148.745849609375,164.466552734375)"/>
<path d="M0 0 C0.84648605 -0.00861557 1.69297211 -0.01723114 2.56510925 -0.02610779 C5.34588752 -0.04869448 8.12565197 -0.0420423 10.90649414 -0.03295898 C12.85030922 -0.03819795 14.79412175 -0.04447543 16.7379303 -0.05174255 C20.80555206 -0.06213341 24.8728237 -0.05760437 28.94042969 -0.04296875 C34.14018238 -0.02578637 39.33882946 -0.04927648 44.53845882 -0.08445835 C48.5509415 -0.10647202 52.56316126 -0.1049812 56.5756855 -0.09669304 C58.49214452 -0.09587563 60.40862325 -0.10269862 62.32502556 -0.11746407 C65.01033349 -0.13498296 67.69367555 -0.12030748 70.37890625 -0.09765625 C71.16201172 -0.10934845 71.94511719 -0.12104065 72.75195312 -0.13308716 C78.62953179 -0.03276075 82.71368459 1.79102427 87.25415039 5.53344727 C89.94347324 9.31530752 90.86574009 12.76580037 90.66821289 17.44360352 C89.8909316 21.36667418 88.00065597 24.65281002 85.25415039 27.53344727 C80.24827716 30.62397032 76.31915255 30.97453825 70.62182617 30.95336914 C69.77548615 30.96183868 68.92914612 30.97030823 68.05715942 30.97903442 C65.27110592 31.00235251 62.48560643 31.00342777 59.69946289 31.00219727 C57.75421937 31.0093023 55.80897794 31.0170018 53.86373901 31.02526855 C49.79020358 31.03870169 45.71686191 31.04028751 41.64331055 31.03442383 C36.43572051 31.02853082 31.22906375 31.05910838 26.02165413 31.09954071 C22.0049035 31.12545296 17.98837649 31.12829188 13.9715538 31.12464905 C12.05229219 31.12633719 10.1330199 31.13595015 8.21384048 31.15379333 C5.52368871 31.17605186 2.83541174 31.16624681 0.14526367 31.14868164 C-0.63941284 31.16194489 -1.42408936 31.17520813 -2.23254395 31.18887329 C-8.11826316 31.10005483 -12.20041504 29.28279904 -16.74584961 25.53344727 C-19.47445703 21.69634307 -20.30697774 18.29001018 -20.08959961 13.55297852 C-19.488703 10.02271094 -18.21641898 7.13404661 -15.74584961 4.53344727 C-10.31151679 0.84761838 -6.49643325 -0.05399737 0 0 Z " fill="#E2DFF4" transform="translate(148.745849609375,100.466552734375)"/>
<path d="M0 0 C2.09647778 0.02140504 4.1895168 0.0001659 6.28588867 -0.02539062 C13.70261103 -0.04149834 19.42981444 0.2665947 25.66674805 4.52148438 C28.95928409 8.40831395 30.41038343 12.24851585 30.1159668 17.46679688 C29.2646208 21.36077943 27.40764239 24.6467324 24.66674805 27.52148438 C18.29528103 31.32451249 12.15921084 31.04503683 4.98168945 31.02246094 C2.80374373 31.02148972 0.62934138 31.06313502 -1.5480957 31.10742188 C-8.38405376 31.16654357 -14.21994705 31.12896471 -19.95483398 26.92724609 C-23.35709362 23.45749565 -24.18603634 19.69920924 -24.77075195 15.02148438 C-24.04500466 9.21550601 -22.18243513 6.01857017 -17.64575195 2.34570312 C-12.22698379 -0.5869644 -5.99725822 -0.07288943 0 0 Z " fill="#FEE279" transform="translate(153.333251953125,292.478515625)"/>
<path d="M0 0 C2.09647778 0.02140504 4.1895168 0.0001659 6.28588867 -0.02539062 C13.70086377 -0.0415497 19.43396128 0.26177612 25.66674805 4.52148438 C28.41551277 7.68917451 29.56031263 10.78974085 30.16674805 14.95898438 C29.55203223 19.33883459 28.61785315 23.14580991 25.66674805 26.52148438 C18.93872411 31.17173621 12.20441252 31.17170266 4.25805664 31.09790039 C2.17001547 31.08400612 0.08644549 31.11820765 -2.0012207 31.15625 C-8.76919792 31.19563628 -14.30935506 30.99958876 -19.93286133 26.92504883 C-23.36864254 23.4814808 -24.18619185 19.69796521 -24.77075195 15.02148438 C-24.04500466 9.21550601 -22.18243513 6.01857017 -17.64575195 2.34570312 C-12.22698379 -0.5869644 -5.99725822 -0.07288943 0 0 Z " fill="#01CB76" transform="translate(297.333251953125,292.478515625)"/>
<path d="M0 0 C4.08380373 1.72994464 7.10511906 3.96529391 10 7.3125 C11.96751182 12.60018803 11.64193234 17.13792148 9.5 22.25 C7.02324935 26.68024413 3.80342936 28.59134403 -1 30 C-5.4620011 30.89240022 -8.98411211 30.360235 -12.8125 27.875 C-17.25679781 24.25259288 -18.80360585 20.76754738 -19.4375 15.0625 C-19.242535 10.62916546 -17.78301658 7.42458427 -15 4 C-10.3582478 -0.2099613 -6.04655515 -1.18479797 0 0 Z " fill="#FE2D2D" transform="translate(84,101)"/>
<path d="M0 0 C4.53396863 2.5659273 7.24446316 4.96052088 8.8203125 10.08203125 C9.59809606 14.91666316 9.44278852 18.76563305 6.7578125 22.95703125 C3.12279753 27.3702466 -1.08301989 28.8199478 -6.6796875 29.51953125 C-11.63908282 28.89960684 -15.20634249 27.37459384 -18.5078125 23.5390625 C-21.30604551 19.23333072 -22.14423616 15.13348197 -21.1796875 10.08203125 C-19.49507063 5.17770286 -16.75368227 2.02943274 -12.09765625 -0.25390625 C-7.72527023 -1.76776699 -4.18671889 -1.7632239 0 0 Z " fill="#6D69D0" transform="translate(86.1796875,229.91796875)"/>
<path d="M0 0 C3.73001949 2.08139209 5.53877841 3.77124912 7.74609375 7.49609375 C9.33344582 13.25024499 9.59241038 17.12815764 6.62109375 22.37109375 C4.13691592 25.96167011 2.00152581 27.78605624 -2.25390625 29.12109375 C-8.130365 29.87934649 -11.68195275 29.07601113 -16.5546875 25.66796875 C-20.29959125 22.258815 -21.37598641 18.00570767 -21.75390625 13.12109375 C-21.56284216 8.43547452 -19.42322756 5.43966288 -16.25390625 2.12109375 C-11.55352731 -1.92645478 -5.67562778 -2.21319974 0 0 Z " fill="#555FDD" transform="translate(86.25390625,165.87890625)"/>
</svg>
